<?xml version="1.0" encoding="utf-8" ?><svg xmlns="http://www.w3.org/2000/svg" xmlns:xlink="http://www.w3.org/1999/xlink" width="1024" height="931" viewBox="0 0 1024 931"><path fill="#EFEAE6" transform="matrix(3.22013 0 0 3.22145 0 -0.00012207)" d="M151.779 27.3024C218.533 22.4751 276.552 72.6939 281.347 139.45C286.142 206.205 235.895 264.201 169.137 268.963C102.425 273.722 44.478 223.517 39.6864 156.808C34.8948 90.0976 85.0717 32.1263 151.779 27.3024Z"/><path fill="#89440B" transform="matrix(3.22013 0 0 3.22145 0 -0.00012207)" d="M158.916 108.099C167.486 106.884 177.93 110.832 184.176 116.586C189.405 121.403 193.594 127.888 195.11 134.904C195.672 137.503 195.762 140.465 195.911 143.117C200.708 143.828 205.964 146.577 209.415 149.976C213.526 153.995 215.855 159.493 215.881 165.243C215.927 171.829 213.215 177.883 208.677 182.64C201.965 189.675 191.719 188.753 182.578 188.742L165.561 188.717L165.554 168.057C165.552 163.173 165.324 157.564 166.161 152.804C168.809 155.052 171.745 157.828 174.375 160.178C176.105 157.581 178.29 155.311 180.559 153.187C174.187 147.032 167.928 140.76 161.787 134.374C161.341 133.925 161.223 133.703 160.635 133.621C158.547 135.063 155.553 138.138 153.678 139.983C149.247 144.392 144.859 148.845 140.515 153.34C142.196 154.681 145.359 158.391 146.891 160.147C149.983 157.875 151.663 155.162 155.11 153.012C155.727 156.436 155.527 163.206 155.519 166.945L155.508 188.667L141.817 188.753C131.034 188.817 123.64 188.598 114.688 181.704C100.394 170.697 102.423 147.472 117.336 138.033C120.202 136.219 123.978 134.956 126.382 132.547C128.29 130.505 128.973 127.365 130.302 124.977C133.733 118.81 139.163 114.101 145.625 111.323C150.072 109.411 154.139 108.611 158.916 108.099Z"/></svg>